<?xml version="1.0" standalone="no"?><!DOCTYPE svg PUBLIC "-//W3C//DTD SVG 1.1//EN" "http://www.w3.org/Graphics/SVG/1.1/DTD/svg11.dtd"><svg t="1588770680127" class="icon" viewBox="0 0 1024 1024" version="1.1" xmlns="http://www.w3.org/2000/svg" p-id="19163" width="16" height="16" xmlns:xlink="http://www.w3.org/1999/xlink"><defs><style type="text/css">@font-face { font-weight: 400; font-style: normal; font-family: Inter-Loom; src: url("https://cdn.loom.com/assets/fonts/inter/Inter-UI-Regular.woff2") format("woff2"); }
@font-face { font-weight: 400; font-style: italic; font-family: Inter-Loom; src: url("https://cdn.loom.com/assets/fonts/inter/Inter-UI-Italic.woff2") format("woff2"); }
@font-face { font-weight: 500; font-style: normal; font-family: Inter-Loom; src: url("https://cdn.loom.com/assets/fonts/inter/Inter-UI-Medium.woff2") format("woff2"); }
@font-face { font-weight: 500; font-style: italic; font-family: Inter-Loom; src: url("https://cdn.loom.com/assets/fonts/inter/Inter-UI-MediumItalic.woff2") format("woff2"); }
@font-face { font-weight: 700; font-style: normal; font-family: Inter-Loom; src: url("https://cdn.loom.com/assets/fonts/inter/Inter-UI-Bold.woff2") format("woff2"); }
@font-face { font-weight: 700; font-style: italic; font-family: Inter-Loom; src: url("https://cdn.loom.com/assets/fonts/inter/Inter-UI-BoldItalic.woff2") format("woff2"); }
@font-face { font-weight: 900; font-style: normal; font-family: Inter-Loom; src: url("https://cdn.loom.com/assets/fonts/inter/Inter-UI-Black.woff2") format("woff2"); }
@font-face { font-weight: 900; font-style: italic; font-family: Inter-Loom; src: url("https://cdn.loom.com/assets/fonts/inter/Inter-UI-BlackItalic.woff2") format("woff2"); }
</style></defs><path d="M729.770667 232.192c-38.314667 0-69.589333 31.274667-69.589334 69.632 0 12.629333 3.584 24.32 9.6 34.56l-83.157333 90.026667 32.341333 29.824 83.456-90.538667c8.405333 3.626667 17.749333 5.717333 27.349334 5.717333 38.357333 0 69.589333-31.274667 69.589333-69.589333a69.461333 69.461333 0 0 0-69.546667-69.632z m0 95.317333a25.813333 25.813333 0 0 1-25.685334-25.685333c0-14.122667 11.52-25.728 25.685334-25.728 14.122667 0 25.728 11.605333 25.728 25.728a25.6 25.6 0 0 1-25.728 25.685333zM525.013333 510.634667l-23.04 24.96a64 64 0 0 0-31.573333-8.533334c-8.106667 0-15.786667 1.621333-22.997333 4.48L357.12 398.336c-0.170667-0.298667-0.597333-0.426667-0.768-0.768 10.069333-9.770667 16.384-23.466667 16.384-38.485333a53.845333 53.845333 0 0 0-107.648 0c0 10.666667 3.328 20.778667 8.746667 29.013333l-103.594667 103.466667a53.418667 53.418667 0 0 0-31.872-10.666667 53.845333 53.845333 0 0 0 0 107.648 53.845333 53.845333 0 0 0 49.92-73.813333l107.349333-107.392c7.04 3.456 14.848 5.418667 23.125334 5.418666 4.394667 0 8.576-0.597333 12.629333-1.621333 0.426667 1.194667 0.768 2.389333 1.536 3.413333l90.325333 133.12a64 64 0 0 0-17.152 43.392 64.426667 64.426667 0 0 0 64.384 64.384 64.426667 64.426667 0 0 0 53.205334-100.437333l22.869333-24.832-21.504-19.541333z m-386.688 48.853333a24.661333 24.661333 0 1 1 0-49.322667 24.661333 24.661333 0 0 1 0 49.322667z m180.565334-175.744a24.661333 24.661333 0 1 1 0-49.322667 24.661333 24.661333 0 0 1 0 49.322667z" p-id="19164" fill="#ffffff"></path><path d="M1016.618667 647.168l-101.162667-146.773333a271.189333 271.189333 0 0 0 86.613333-198.570667 272 272 0 1 0-272 271.957333c40.32 0 78.506667-9.002667 112.768-24.661333l101.930667 147.626667c13.226667 19.114667 39.68 23.936 58.794667 10.837333l2.389333-1.621333a42.666667 42.666667 0 0 0 10.666667-58.794667zM729.770667 520.533333a218.752 218.752 0 0 1-218.752-218.752c0-120.746667 98.005333-218.88 218.752-218.88a218.88 218.88 0 0 1 0 437.632z" p-id="19165" fill="#ffffff"></path><path d="M808.832 753.322667a29.653333 29.653333 0 0 1-29.610667 29.610666H88.234667a29.653333 29.653333 0 0 1-29.610667-29.610666V177.024c0-16.384 13.397333-29.610667 29.610667-29.610667H421.12a352 352 0 0 1 28.714667-48.725333h-386.986667C28.288 98.688 0 126.976 0 161.536v620.032c0 34.56 28.245333 62.848 62.848 62.848h326.101333v77.866667H211.370667a34.858667 34.858667 0 0 0-34.730667 34.730666v2.432c0 19.072 15.658667 34.730667 34.730667 34.730667h444.586666a34.858667 34.858667 0 0 0 34.730667-34.730667v-2.432a34.858667 34.858667 0 0 0-34.730667-34.730666h-177.578666v-77.866667h326.101333c34.56 0 62.848-28.288 62.848-62.848v-127.36c-18.773333 6.314667-38.314667 11.306667-58.453333 14.464v84.650667z" p-id="19166" fill="#ffffff"></path></svg>