<?xml version="1.0" standalone="no"?><!DOCTYPE svg PUBLIC "-//W3C//DTD SVG 1.1//EN" "http://www.w3.org/Graphics/SVG/1.1/DTD/svg11.dtd"><svg t="1588770979873" class="icon" viewBox="0 0 1024 1024" version="1.1" xmlns="http://www.w3.org/2000/svg" p-id="21872" xmlns:xlink="http://www.w3.org/1999/xlink" width="16" height="16"><defs><style type="text/css">@font-face { font-weight: 400; font-style: normal; font-family: Inter-Loom; src: url("https://cdn.loom.com/assets/fonts/inter/Inter-UI-Regular.woff2") format("woff2"); }
@font-face { font-weight: 400; font-style: italic; font-family: Inter-Loom; src: url("https://cdn.loom.com/assets/fonts/inter/Inter-UI-Italic.woff2") format("woff2"); }
@font-face { font-weight: 500; font-style: normal; font-family: Inter-Loom; src: url("https://cdn.loom.com/assets/fonts/inter/Inter-UI-Medium.woff2") format("woff2"); }
@font-face { font-weight: 500; font-style: italic; font-family: Inter-Loom; src: url("https://cdn.loom.com/assets/fonts/inter/Inter-UI-MediumItalic.woff2") format("woff2"); }
@font-face { font-weight: 700; font-style: normal; font-family: Inter-Loom; src: url("https://cdn.loom.com/assets/fonts/inter/Inter-UI-Bold.woff2") format("woff2"); }
@font-face { font-weight: 700; font-style: italic; font-family: Inter-Loom; src: url("https://cdn.loom.com/assets/fonts/inter/Inter-UI-BoldItalic.woff2") format("woff2"); }
@font-face { font-weight: 900; font-style: normal; font-family: Inter-Loom; src: url("https://cdn.loom.com/assets/fonts/inter/Inter-UI-Black.woff2") format("woff2"); }
@font-face { font-weight: 900; font-style: italic; font-family: Inter-Loom; src: url("https://cdn.loom.com/assets/fonts/inter/Inter-UI-BlackItalic.woff2") format("woff2"); }
</style></defs><path d="M442.823363 578.544776c30.085773 0 60.171547-4.283223 90.308925-4.283223a315.823212 315.823212 0 0 1 167.716576-60.223152c38.703825-25.80255 64.506375-60.223152 64.506375-98.926976v-90.308925c0 90.308925-146.248853 146.248853-322.531876 146.248853s-322.531875-55.939928-322.531875-146.248853v90.308925c0 90.308925 141.914025 163.433352 322.531875 163.433351zM421.304037 793.583228c-167.716575-4.334828-301.012549-60.223152-301.012549-146.248853v90.308925c0 90.308925 146.197248 159.150129 322.531875 159.150128a259.986494 259.986494 0 0 1-21.519326-103.2102z" fill="#ffffff" p-id="21873"></path><path d="M425.58726 737.6433a303.696014 303.696014 0 0 1 47.321877-107.493423h-30.085774c-176.334627 0-322.531875-55.888323-322.531875-146.197249v90.308925c0 90.308925 137.734012 159.098523 305.295772 163.381747zM442.823363 415.111425c176.283022 0 322.531875-73.072822 322.531876-163.381747v-51.6051c0-90.308925-146.248853-163.433352-322.531876-163.433352s-322.531875 73.124427-322.531875 163.433352v51.6051c0 90.308925 141.914025 163.381747 322.531875 163.381747zM688.360429 987.308774a215.038452 215.038452 0 1 1 83.806683-16.874868 214.419191 214.419191 0 0 1-83.806683 16.874868z m0-396.585194a181.443532 181.443532 0 1 0 181.495137 181.443532 181.443532 181.443532 0 0 0-181.495137-181.443532z" fill="#ffffff" p-id="21874"></path><path d="M652.598095 857.625157a16.823263 16.823263 0 0 1-11.765963-5.16051l-80.865192-80.813586a16.978078 16.978078 0 0 1 23.996372-23.996372l68.634783 69.047624 142.739707-142.739707a16.978078 16.978078 0 0 1 23.996371 23.996372l-154.8153 154.505669a16.823263 16.823263 0 0 1-11.765963 5.16051z" fill="#ffffff" p-id="21875"></path></svg>