<?xml version="1.0" standalone="no"?><!DOCTYPE svg PUBLIC "-//W3C//DTD SVG 1.1//EN" "http://www.w3.org/Graphics/SVG/1.1/DTD/svg11.dtd"><svg t="1588771488318" class="icon" viewBox="0 0 1024 1024" version="1.1" xmlns="http://www.w3.org/2000/svg" p-id="34781" xmlns:xlink="http://www.w3.org/1999/xlink" width="16" height="16"><defs><style type="text/css">@font-face { font-weight: 400; font-style: normal; font-family: Inter-Loom; src: url("https://cdn.loom.com/assets/fonts/inter/Inter-UI-Regular.woff2") format("woff2"); }
@font-face { font-weight: 400; font-style: italic; font-family: Inter-Loom; src: url("https://cdn.loom.com/assets/fonts/inter/Inter-UI-Italic.woff2") format("woff2"); }
@font-face { font-weight: 500; font-style: normal; font-family: Inter-Loom; src: url("https://cdn.loom.com/assets/fonts/inter/Inter-UI-Medium.woff2") format("woff2"); }
@font-face { font-weight: 500; font-style: italic; font-family: Inter-Loom; src: url("https://cdn.loom.com/assets/fonts/inter/Inter-UI-MediumItalic.woff2") format("woff2"); }
@font-face { font-weight: 700; font-style: normal; font-family: Inter-Loom; src: url("https://cdn.loom.com/assets/fonts/inter/Inter-UI-Bold.woff2") format("woff2"); }
@font-face { font-weight: 700; font-style: italic; font-family: Inter-Loom; src: url("https://cdn.loom.com/assets/fonts/inter/Inter-UI-BoldItalic.woff2") format("woff2"); }
@font-face { font-weight: 900; font-style: normal; font-family: Inter-Loom; src: url("https://cdn.loom.com/assets/fonts/inter/Inter-UI-Black.woff2") format("woff2"); }
@font-face { font-weight: 900; font-style: italic; font-family: Inter-Loom; src: url("https://cdn.loom.com/assets/fonts/inter/Inter-UI-BlackItalic.woff2") format("woff2"); }
</style></defs><path d="M895.074629 217.24505v449.001363c0 26.930468-6.396586 53.707238-19.154514 80.33129-12.79513 26.701389-29.496347 52.481569-50.182949 77.534374-20.685623 25.015604-44.322838 48.7282-70.868572 71.060449-26.585871 22.371408-53.516339 42.291477-80.829584 59.759227-27.351425 17.50593-53.899116 32.063205-79.679296 43.632665-25.780179 11.56946-48.382624 19.499112-67.804397 23.827135l-9.193502 1.608447-8.427947-1.608447c-19.920069-4.329003-43.018851-12.258654-69.336484-23.827135-26.316655-11.56946-53.6299-26.125755-81.977916-43.632665-28.348016-17.46775-56.159557-37.387819-83.510003-59.759227-27.313245-22.333228-51.715036-46.044845-73.167192-71.060449-21.452156-25.052805-38.805367-50.832984-52.059633-77.534374-13.331605-26.624051-19.958248-53.399842-19.958248-80.33129V217.24505l31.41219-4.865478 352.428972-69.451023 359.323853 69.451023 22.984243 4.865478zM512.881072 207.93603l-4.251664-0.881072-302.476081 54.205534v283.284366h306.728724V207.937009z m304.96658 336.607849H512.881072v403.224755c19.612672-4.749959 40.950289-11.990417 64.01187-21.757594 23.023402-9.768156 45.777587-21.299437 68.225355-34.631041 22.486926-13.331605 44.091801-28.117958 64.892942-44.398219 20.800162-16.280261 39.149964-33.78717 55.201146-52.443389 16.013002-18.618039 28.768973-38.001633 38.307071-58.15078 9.576278-20.110968 14.326238-40.567512 14.326238-61.292293V544.5429z" fill="#ffffff" p-id="34782"></path></svg>