<?xml version="1.0" standalone="no"?><!DOCTYPE svg PUBLIC "-//W3C//DTD SVG 1.1//EN" "http://www.w3.org/Graphics/SVG/1.1/DTD/svg11.dtd"><svg t="1588771532769" class="icon" viewBox="0 0 1024 1024" version="1.1" xmlns="http://www.w3.org/2000/svg" p-id="37813" xmlns:xlink="http://www.w3.org/1999/xlink" width="16" height="16"><defs><style type="text/css">@font-face { font-weight: 400; font-style: normal; font-family: Inter-Loom; src: url("https://cdn.loom.com/assets/fonts/inter/Inter-UI-Regular.woff2") format("woff2"); }
@font-face { font-weight: 400; font-style: italic; font-family: Inter-Loom; src: url("https://cdn.loom.com/assets/fonts/inter/Inter-UI-Italic.woff2") format("woff2"); }
@font-face { font-weight: 500; font-style: normal; font-family: Inter-Loom; src: url("https://cdn.loom.com/assets/fonts/inter/Inter-UI-Medium.woff2") format("woff2"); }
@font-face { font-weight: 500; font-style: italic; font-family: Inter-Loom; src: url("https://cdn.loom.com/assets/fonts/inter/Inter-UI-MediumItalic.woff2") format("woff2"); }
@font-face { font-weight: 700; font-style: normal; font-family: Inter-Loom; src: url("https://cdn.loom.com/assets/fonts/inter/Inter-UI-Bold.woff2") format("woff2"); }
@font-face { font-weight: 700; font-style: italic; font-family: Inter-Loom; src: url("https://cdn.loom.com/assets/fonts/inter/Inter-UI-BoldItalic.woff2") format("woff2"); }
@font-face { font-weight: 900; font-style: normal; font-family: Inter-Loom; src: url("https://cdn.loom.com/assets/fonts/inter/Inter-UI-Black.woff2") format("woff2"); }
@font-face { font-weight: 900; font-style: italic; font-family: Inter-Loom; src: url("https://cdn.loom.com/assets/fonts/inter/Inter-UI-BlackItalic.woff2") format("woff2"); }
</style></defs><path d="M331.946667 364.586667a54.016 54.016 0 1 0 108.032 0 54.016 54.016 0 0 0-108.074667 0zM584.021333 364.586667a54.016 54.016 0 1 0 108.074667 0 54.016 54.016 0 0 0-108.074667 0z" p-id="37814" fill="#ffffff"></path><path d="M854.186667 742.826667h-198.101334v-50.474667h180.053334a39.978667 39.978667 0 0 0 39.637333-39.594667V148.48a39.978667 39.978667 0 0 0-39.637333-39.68H641.706667V40.490667a39.978667 39.978667 0 0 0-39.637334-39.637334H421.973333a39.978667 39.978667 0 0 0-39.637333 39.637334v68.437333H187.861333a39.978667 39.978667 0 0 0-39.637333 39.637333v504.234667c0 21.589333 18.005333 39.594667 39.637333 39.594667h180.053334v50.432H169.856a36.138667 36.138667 0 0 0-36.053333 36.010666v180.096c0 19.797333 16.213333 36.010667 36.053333 36.010667h684.288c19.84 0 36.053333-16.213333 36.053333-36.010667v-180.053333a36.138667 36.138667 0 0 0-36.053333-36.053333zM461.525333 80.042667h99.072v27.008h-99.072v-27.008z m-234.112 531.2V188.16h567.296v423.210667H227.413333z m590.677334 311.594666H205.866667v-108.074666h198.101333c19.797333 0 36.010667-16.213333 36.010667-36.010667v-86.442667h144.042666v86.442667c0 19.84 16.213333 36.010667 36.010667 36.010667h198.101333v108.074666zM61.781333 269.141333a39.978667 39.978667 0 0 0-39.637333 39.637334v162.090666c0 21.589333 18.048 39.594667 39.637333 39.594667a39.978667 39.978667 0 0 0 39.637334-39.594667V308.778667a39.978667 39.978667 0 0 0-39.637334-39.637334z m900.437334 0a39.978667 39.978667 0 0 0-39.637334 39.637334v162.090666c0 21.589333 18.005333 39.594667 39.637334 39.594667a39.978667 39.978667 0 0 0 39.637333-39.594667V308.778667a39.978667 39.978667 0 0 0-39.637333-39.637334z" p-id="37815" fill="#ffffff"></path></svg>