<?xml version="1.0" standalone="no"?><!DOCTYPE svg PUBLIC "-//W3C//DTD SVG 1.1//EN" "http://www.w3.org/Graphics/SVG/1.1/DTD/svg11.dtd"><svg t="1588771305480" class="icon" viewBox="0 0 1024 1024" version="1.1" xmlns="http://www.w3.org/2000/svg" p-id="31141" xmlns:xlink="http://www.w3.org/1999/xlink" width="32" height="32"><defs><style type="text/css">@font-face { font-weight: 400; font-style: normal; font-family: Inter-Loom; src: url("https://cdn.loom.com/assets/fonts/inter/Inter-UI-Regular.woff2") format("woff2"); }
@font-face { font-weight: 400; font-style: italic; font-family: Inter-Loom; src: url("https://cdn.loom.com/assets/fonts/inter/Inter-UI-Italic.woff2") format("woff2"); }
@font-face { font-weight: 500; font-style: normal; font-family: Inter-Loom; src: url("https://cdn.loom.com/assets/fonts/inter/Inter-UI-Medium.woff2") format("woff2"); }
@font-face { font-weight: 500; font-style: italic; font-family: Inter-Loom; src: url("https://cdn.loom.com/assets/fonts/inter/Inter-UI-MediumItalic.woff2") format("woff2"); }
@font-face { font-weight: 700; font-style: normal; font-family: Inter-Loom; src: url("https://cdn.loom.com/assets/fonts/inter/Inter-UI-Bold.woff2") format("woff2"); }
@font-face { font-weight: 700; font-style: italic; font-family: Inter-Loom; src: url("https://cdn.loom.com/assets/fonts/inter/Inter-UI-BoldItalic.woff2") format("woff2"); }
@font-face { font-weight: 900; font-style: normal; font-family: Inter-Loom; src: url("https://cdn.loom.com/assets/fonts/inter/Inter-UI-Black.woff2") format("woff2"); }
@font-face { font-weight: 900; font-style: italic; font-family: Inter-Loom; src: url("https://cdn.loom.com/assets/fonts/inter/Inter-UI-BlackItalic.woff2") format("woff2"); }
</style></defs><path d="M913.9 739.8l-70.5-91.2c-21.2-27.4-32.6-60.5-32.6-94.4V424.4c0-113.5-69.3-211.5-170-258.6-19.1-8.9-33-24.5-40.5-43.4-13.5-34.1-48-58.4-88.7-58.4-39.8 0-73.5 23.2-87.6 56.1-7.7 18-21.6 32.8-40.4 40.7-106.6 44.8-180.8 146-180.8 263.6v141.9c0 34-11.4 67.1-32.6 94.4l-61.1 78.9c-20.2 26.2-0.5 63.1 33.6 63.1h737.4c34.4 0.1 54.1-36.8 33.8-62.9z m-293.8 104H415c-23.4 0-37.8 23.8-26.6 43.3 24.9 43.4 73.3 72.9 129.1 72.9s104.2-29.5 129.1-72.9c11.2-19.5-3.1-43.3-26.5-43.3z m0 0" p-id="31142" fill="#ffffff"></path></svg>