<?xml version="1.0" standalone="no"?><!DOCTYPE svg PUBLIC "-//W3C//DTD SVG 1.1//EN" "http://www.w3.org/Graphics/SVG/1.1/DTD/svg11.dtd"><svg t="1588771113434" class="icon" viewBox="0 0 1820 1024" version="1.1" xmlns="http://www.w3.org/2000/svg" p-id="26964" width="56.875" height="32" xmlns:xlink="http://www.w3.org/1999/xlink"><defs><style type="text/css">@font-face { font-weight: 400; font-style: normal; font-family: Inter-Loom; src: url("https://cdn.loom.com/assets/fonts/inter/Inter-UI-Regular.woff2") format("woff2"); }
@font-face { font-weight: 400; font-style: italic; font-family: Inter-Loom; src: url("https://cdn.loom.com/assets/fonts/inter/Inter-UI-Italic.woff2") format("woff2"); }
@font-face { font-weight: 500; font-style: normal; font-family: Inter-Loom; src: url("https://cdn.loom.com/assets/fonts/inter/Inter-UI-Medium.woff2") format("woff2"); }
@font-face { font-weight: 500; font-style: italic; font-family: Inter-Loom; src: url("https://cdn.loom.com/assets/fonts/inter/Inter-UI-MediumItalic.woff2") format("woff2"); }
@font-face { font-weight: 700; font-style: normal; font-family: Inter-Loom; src: url("https://cdn.loom.com/assets/fonts/inter/Inter-UI-Bold.woff2") format("woff2"); }
@font-face { font-weight: 700; font-style: italic; font-family: Inter-Loom; src: url("https://cdn.loom.com/assets/fonts/inter/Inter-UI-BoldItalic.woff2") format("woff2"); }
@font-face { font-weight: 900; font-style: normal; font-family: Inter-Loom; src: url("https://cdn.loom.com/assets/fonts/inter/Inter-UI-Black.woff2") format("woff2"); }
@font-face { font-weight: 900; font-style: italic; font-family: Inter-Loom; src: url("https://cdn.loom.com/assets/fonts/inter/Inter-UI-BlackItalic.woff2") format("woff2"); }
</style></defs><path d="M910.506667 509.155556m-445.81926 0a445.819259 445.819259 0 1 0 891.638519 0 445.819259 445.819259 0 1 0-891.638519 0Z" fill="#ffe0c8" p-id="26965"></path><path d="M851.721481 569.552593c-129.327407 56.699259-168.106667 86.945185-183.466666 100.503703-23.608889 20.954074-36.693333 98.797037-50.631111 164.977778h585.102222c-13.937778-66.180741-27.022222-144.118519-50.631111-164.977778-15.36-13.558519-52.717037-43.045926-182.044445-99.65037l-118.328889-0.853333z" fill="#FFD16E" p-id="26966"></path><path d="M972.98963 456.628148v143.36c-34.512593 42.287407-91.022222 40.865185-125.534815 0V456.628148c0-77.463704 125.534815-77.463704 125.534815 0z" fill="#FFDECC" p-id="26967"></path><path d="M972.98963 456.628148v95.952593c-23.798519 17.351111-46.648889 27.022222-62.767408 27.022222s-39.063704-9.671111-62.767407-27.022222V456.628148c0-77.463704 125.534815-77.463704 125.534815 0z" fill="#F7C5AA" p-id="26968"></path><path d="M841.481481 568.035556l-44.562962 24.082963 64.568888 89.505185 49.01926-46.45926-69.025186-67.128888z" fill="#fff0e4" p-id="26969"></path><path d="M979.531852 568.035556l44.562963 24.082963-64.568889 89.505185-49.019259-46.45926 69.025185-67.128888z" fill="#fff0e4" p-id="26970"></path><path d="M736.900741 835.034074h10.05037c-0.474074-44.562963-0.474074-76.61037-0.474074-76.61037s-4.456296 33.374815-9.576296 76.61037zM1083.543704 835.034074h-10.050371c0.474074-44.562963 0.474074-76.61037 0.474074-76.61037s4.456296 33.374815 9.576297 76.61037z" fill="#BA8D3A" p-id="26971"></path><path d="M910.506667 209.635556C699.828148 209.635556 775.585185 464.213333 789.333333 484.503704c15.17037 22.376296 87.134815 81.635556 121.173334 81.635555 34.038519 0 106.002963-59.259259 121.173333-81.635555 13.748148-20.29037 89.505185-274.868148-121.173333-274.868148z" fill="#fff0e4" p-id="26972"></path><path d="M748.562963 376.794074c11.093333-3.602963 25.125926 8.912593 31.383704 28.065185 6.257778 19.152593 2.465185 37.546667-8.628148 41.244445-11.093333 3.602963-25.125926-8.912593-31.383704-28.065185-6.257778-19.152593-2.37037-37.546667 8.628148-41.244445zM1071.881481 376.794074c-11.093333-3.602963-25.125926 8.912593-31.383703 28.065185-6.257778 19.152593-2.465185 37.546667 8.628148 41.244445 11.093333 3.602963 25.125926-8.912593 31.383704-28.065185 6.257778-19.152593 2.37037-37.546667-8.628149-41.244445z" fill="#FFDECC" p-id="26973"></path><path d="M814.174815 294.779259c-12.231111 66.74963-42.856296 60.586667-40.391111 138.903704-9.860741-61.060741-24.557037-142.317037 16.971852-195.887407 33.185185-42.761481 143.075556-73.386667 214.186666-22.091852 78.601481 16.782222 54.044444 176.82963 43.52 207.075555-7.395556-49.019259-23.798519-69.404444-44.657778-126.957037-28.16 20.29037-153.41037 24.746667-189.629629-1.042963z" fill="#CC7C54" p-id="26974"></path></svg>