<?xml version="1.0" standalone="no"?><!DOCTYPE svg PUBLIC "-//W3C//DTD SVG 1.1//EN" "http://www.w3.org/Graphics/SVG/1.1/DTD/svg11.dtd"><svg t="1588771437824" class="icon" viewBox="0 0 1024 1024" version="1.1" xmlns="http://www.w3.org/2000/svg" p-id="33897" width="16" height="16" xmlns:xlink="http://www.w3.org/1999/xlink"><defs><style type="text/css">@font-face { font-weight: 400; font-style: normal; font-family: Inter-Loom; src: url("https://cdn.loom.com/assets/fonts/inter/Inter-UI-Regular.woff2") format("woff2"); }
@font-face { font-weight: 400; font-style: italic; font-family: Inter-Loom; src: url("https://cdn.loom.com/assets/fonts/inter/Inter-UI-Italic.woff2") format("woff2"); }
@font-face { font-weight: 500; font-style: normal; font-family: Inter-Loom; src: url("https://cdn.loom.com/assets/fonts/inter/Inter-UI-Medium.woff2") format("woff2"); }
@font-face { font-weight: 500; font-style: italic; font-family: Inter-Loom; src: url("https://cdn.loom.com/assets/fonts/inter/Inter-UI-MediumItalic.woff2") format("woff2"); }
@font-face { font-weight: 700; font-style: normal; font-family: Inter-Loom; src: url("https://cdn.loom.com/assets/fonts/inter/Inter-UI-Bold.woff2") format("woff2"); }
@font-face { font-weight: 700; font-style: italic; font-family: Inter-Loom; src: url("https://cdn.loom.com/assets/fonts/inter/Inter-UI-BoldItalic.woff2") format("woff2"); }
@font-face { font-weight: 900; font-style: normal; font-family: Inter-Loom; src: url("https://cdn.loom.com/assets/fonts/inter/Inter-UI-Black.woff2") format("woff2"); }
@font-face { font-weight: 900; font-style: italic; font-family: Inter-Loom; src: url("https://cdn.loom.com/assets/fonts/inter/Inter-UI-BlackItalic.woff2") format("woff2"); }
</style></defs><path d="M945.2 897L766.5 718.3c25-30 45.4-63.3 60.7-99.5 20.7-49 31.2-101 31.2-154.6s-10.5-105.6-31.2-154.6c-20-47.3-48.6-89.8-85.1-126.2-36.5-36.5-78.9-65.1-126.2-85.1-49-20.7-101-31.2-154.6-31.2S355.6 77.5 306.6 98.2c-47.3 20-89.8 48.6-126.2 85.1s-65.1 78.9-85.1 126.2c-20.7 49-31.2 101-31.2 154.6s10.5 105.6 31.2 154.6c20 47.3 48.6 89.8 85.1 126.2 36.5 36.5 78.9 65.1 126.2 85.1 49 20.7 101 31.2 154.6 31.2s105.6-10.5 154.6-31.2c36.3-15.3 69.7-35.8 99.7-60.9l178.7 178.7c7 7 16.2 10.5 25.5 10.5 9.2 0 18.4-3.5 25.5-10.5 14-13.9 14-36.7 0-50.8z m-484-107.7C281.9 789.3 136 643.4 136 464.1c0-179.3 145.9-325.2 325.2-325.2 179.3 0 325.2 145.9 325.2 325.2 0 179.4-145.9 325.2-325.2 325.2z" fill="#ffffff" p-id="33898"></path><path d="M682.1 354.9c-12.5-10.9-31.4-9.7-42.3 2.8L514.5 500.5l-90.9-139.4c-5.1-7.8-13.5-12.8-22.7-13.5-9.3-0.7-18.3 2.8-24.6 9.7L218.8 529.7c-11.2 12.2-10.3 31.2 1.9 42.4 5.8 5.3 13 7.8 20.2 7.8 8.1 0 16.2-3.3 22.2-9.8l131.4-143.9 91.3 140c5.1 7.9 13.6 12.9 23 13.5 9.4 0.7 18.5-3.1 24.7-10.1l151.4-172.5c10.9-12.3 9.7-31.2-2.8-42.2z" fill="#ffffff" p-id="33899"></path></svg>